<svg width="64" height="64" viewBox="0 0 64 64" fill="none" xmlns="http://www.w3.org/2000/svg">
<rect width="64" height="64" fill="#008080"/>
<path d="M52.2667 56L35.4667 39.2C34.1333 40.2667 32.6 41.1111 30.8667 41.7333C29.1333 42.3556 27.2889 42.6667 25.3333 42.6667C20.4889 42.6667 16.3893 40.9884 13.0347 37.632C9.68 34.2756 8.00178 30.176 8 25.3333C7.99822 20.4907 9.67645 16.3911 13.0347 13.0347C16.3929 9.67822 20.4924 8 25.3333 8C30.1742 8 34.2747 9.67822 37.6347 13.0347C40.9947 16.3911 42.672 20.4907 42.6667 25.3333C42.6667 27.2889 42.3556 29.1333 41.7333 30.8667C41.1111 32.6 40.2667 34.1333 39.2 35.4667L56 52.2667L52.2667 56ZM25.3333 37.3333C28.6667 37.3333 31.5004 36.1671 33.8347 33.8347C36.1689 31.5022 37.3351 28.6684 37.3333 25.3333C37.3316 21.9982 36.1653 19.1653 33.8347 16.8347C31.504 14.504 28.6702 13.3369 25.3333 13.3333C21.9964 13.3298 19.1636 14.4969 16.8347 16.8347C14.5058 19.1724 13.3387 22.0053 13.3333 25.3333C13.328 28.6613 14.4951 31.4951 16.8347 33.8347C19.1742 36.1742 22.0071 37.3404 25.3333 37.3333ZM21.3333 32V18.6667L32 25.3333L21.3333 32Z" fill="white"/>
</svg>
