<svg width="105" height="48" viewBox="0 0 105 48" fill="none" xmlns="http://www.w3.org/2000/svg">
<rect width="105" height="48" rx="10" fill="#EDEDED"/>
<path d="M82.6 21L76.3 14.7C75.8 15.1 75.225 15.4167 74.575 15.65C73.925 15.8833 73.2333 16 72.5 16C70.6833 16 69.146 15.3707 67.888 14.112C66.63 12.8533 66.0007 11.316 66 9.5C65.9993 7.684 66.6287 6.14667 67.888 4.888C69.1473 3.62933 70.6847 3 72.5 3C74.3153 3 75.853 3.62933 77.113 4.888C78.373 6.14667 79.002 7.684 79 9.5C79 10.2333 78.8833 10.925 78.65 11.575C78.4167 12.225 78.1 12.8 77.7 13.3L84 19.6L82.6 21ZM72.5 14C73.75 14 74.8127 13.5627 75.688 12.688C76.5633 11.8133 77.0007 10.7507 77 9.5C76.9993 8.24933 76.562 7.187 75.688 6.313C74.814 5.439 73.7513 5.00133 72.5 5C71.2487 4.99867 70.1863 5.43633 69.313 6.313C68.4397 7.18967 68.002 8.252 68 9.5C67.998 10.748 68.4357 11.8107 69.313 12.688C70.1903 13.5653 71.2527 14.0027 72.5 14ZM71 12V7L75 9.5L71 12Z" fill="#F24E1E"/>
<path d="M24.9375 4.45455H29.8523L33.233 12.6932H33.4034L36.7841 4.45455H41.6989V19H37.8352V10.5909H37.7216L34.483 18.8864H32.1534L28.9148 10.5341H28.8011V19H24.9375V4.45455ZM46.0135 23.0909C45.5637 23.0909 45.1352 23.0554 44.728 22.9844C44.3208 22.9181 43.9633 22.8258 43.6555 22.7074L44.5078 19.9233C44.8298 20.0369 45.1233 20.1103 45.3885 20.1435C45.6584 20.1766 45.888 20.1577 46.0774 20.0866C46.2715 20.0156 46.4112 19.8807 46.4964 19.6818L46.5817 19.483L42.7464 8.09091H46.8374L48.5987 15.6477H48.7124L50.5021 8.09091H54.6214L50.6442 19.9091C50.4453 20.5104 50.1565 21.0502 49.7777 21.5284C49.4036 22.0114 48.9112 22.3925 48.3004 22.6719C47.6896 22.9512 46.9273 23.0909 46.0135 23.0909Z" fill="black"/>
<path d="M8.9375 43V28.4545H12.8864V39.8182H18.767V43H8.9375ZM25.6474 43.1989C24.4826 43.1989 23.4788 42.9763 22.636 42.5312C21.7979 42.0814 21.1516 41.4375 20.6971 40.5994C20.2473 39.7566 20.0224 38.7481 20.0224 37.5739C20.0224 36.447 20.2496 35.4621 20.7042 34.6193C21.1587 33.7765 21.8003 33.1207 22.6289 32.652C23.4575 32.1832 24.4353 31.9489 25.5621 31.9489C26.386 31.9489 27.1317 32.0767 27.7994 32.3324C28.467 32.5881 29.0375 32.9598 29.511 33.4474C29.9845 33.9304 30.3491 34.5175 30.6048 35.2088C30.8604 35.9001 30.9883 36.679 30.9883 37.5455V38.4545H21.244V36.2955H27.3803C27.3756 35.983 27.2951 35.7083 27.1388 35.4716C26.9873 35.2301 26.7814 35.0431 26.521 34.9105C26.2653 34.7732 25.9741 34.7045 25.6474 34.7045C25.3301 34.7045 25.0389 34.7732 24.7738 34.9105C24.5086 35.0431 24.2956 35.2277 24.1346 35.4645C23.9783 35.7012 23.8955 35.9782 23.886 36.2955V38.625C23.886 38.9754 23.9594 39.2879 24.1062 39.5625C24.253 39.8371 24.4637 40.0526 24.7383 40.2088C25.0129 40.3651 25.3443 40.4432 25.7326 40.4432C26.0025 40.4432 26.2487 40.4053 26.4712 40.3295C26.6985 40.2538 26.8926 40.1449 27.0536 40.0028C27.2146 39.8561 27.333 39.6809 27.4087 39.4773H30.9883C30.8652 40.2348 30.574 40.893 30.1147 41.4517C29.6554 42.0057 29.047 42.4366 28.2894 42.7443C27.5366 43.0473 26.6559 43.1989 25.6474 43.1989ZM35.6278 43.1705C34.9318 43.1705 34.3163 43.0568 33.7812 42.8295C33.2509 42.5975 32.8343 42.2472 32.5312 41.7784C32.2282 41.3097 32.0767 40.7131 32.0767 39.9886C32.0767 39.392 32.1785 38.883 32.3821 38.4616C32.5857 38.0355 32.8698 37.6875 33.2344 37.4176C33.599 37.1477 34.0227 36.9418 34.5057 36.7997C34.9934 36.6577 35.5189 36.5653 36.0824 36.5227C36.6932 36.4754 37.1832 36.4186 37.5526 36.3523C37.9266 36.2812 38.1965 36.1842 38.3622 36.0611C38.5279 35.9332 38.6108 35.7652 38.6108 35.5568V35.5284C38.6108 35.2443 38.5019 35.0265 38.2841 34.875C38.0663 34.7235 37.7869 34.6477 37.446 34.6477C37.072 34.6477 36.7666 34.7306 36.5298 34.8963C36.2978 35.0573 36.1581 35.3059 36.1108 35.642H32.5028C32.5502 34.9792 32.7609 34.3684 33.1349 33.8097C33.5137 33.2462 34.0653 32.7964 34.7898 32.4602C35.5142 32.1193 36.4186 31.9489 37.5028 31.9489C38.2841 31.9489 38.9848 32.0412 39.6051 32.2259C40.2254 32.4058 40.7533 32.6591 41.1889 32.9858C41.6245 33.3078 41.956 33.6866 42.1832 34.1222C42.4152 34.553 42.5312 35.0218 42.5312 35.5284V43H38.8665V41.4659H38.7812C38.5634 41.8731 38.2983 42.2022 37.9858 42.4531C37.678 42.7041 37.3253 42.8864 36.9276 43C36.5346 43.1136 36.1013 43.1705 35.6278 43.1705ZM36.9062 40.6989C37.2045 40.6989 37.4839 40.6373 37.7443 40.5142C38.0095 40.3911 38.2249 40.2135 38.3906 39.9815C38.5563 39.7495 38.6392 39.4678 38.6392 39.1364V38.2273C38.535 38.2699 38.4238 38.3101 38.3054 38.348C38.1918 38.3859 38.0687 38.4214 37.9361 38.4545C37.8082 38.4877 37.6709 38.5185 37.5241 38.5469C37.3821 38.5753 37.233 38.6013 37.0767 38.625C36.7737 38.6723 36.5251 38.7505 36.331 38.8594C36.1416 38.9635 35.9995 39.0938 35.9048 39.25C35.8149 39.4015 35.7699 39.572 35.7699 39.7614C35.7699 40.0644 35.8764 40.2964 36.0895 40.4574C36.3026 40.6184 36.5748 40.6989 36.9062 40.6989ZM44.4045 43V32.0909H48.2113V34.1648H48.3249C48.5238 33.3977 48.8387 32.8366 49.2695 32.4815C49.7051 32.1264 50.2141 31.9489 50.7965 31.9489C50.967 31.9489 51.1351 31.9631 51.3008 31.9915C51.4712 32.0152 51.6346 32.0507 51.7908 32.098V35.4432C51.5967 35.3769 51.3576 35.3272 51.0735 35.294C50.7894 35.2609 50.5456 35.2443 50.342 35.2443C49.9585 35.2443 49.6128 35.3319 49.305 35.5071C49.002 35.6776 48.7629 35.919 48.5877 36.2315C48.4125 36.5393 48.3249 36.9015 48.3249 37.3182V43H44.4045ZM56.9968 36.8636V43H53.0763V32.0909H56.7979V34.1648H56.9116C57.1483 33.4735 57.565 32.9313 58.1616 32.5384C58.7629 32.1454 59.4637 31.9489 60.2638 31.9489C61.0356 31.9489 61.7056 32.1264 62.2738 32.4815C62.8467 32.8319 63.2894 33.3149 63.6019 33.9304C63.9192 34.5459 64.0754 35.2491 64.0707 36.0398V43H60.1502V36.8636C60.1549 36.3239 60.0176 35.9001 59.7383 35.5923C59.4637 35.2846 59.0801 35.1307 58.5877 35.1307C58.2657 35.1307 57.984 35.2017 57.7425 35.3438C57.5058 35.4811 57.3235 35.6799 57.1957 35.9403C57.0678 36.196 57.0015 36.5038 56.9968 36.8636ZM66.006 43V32.0909H69.9265V43H66.006ZM67.9663 30.9545C67.436 30.9545 66.9814 30.7794 66.6026 30.429C66.2238 30.0786 66.0344 29.6572 66.0344 29.1648C66.0344 28.6723 66.2238 28.2509 66.6026 27.9006C66.9814 27.5502 67.436 27.375 67.9663 27.375C68.5013 27.375 68.9558 27.5502 69.3299 27.9006C69.7087 28.2509 69.8981 28.6723 69.8981 29.1648C69.8981 29.6572 69.7087 30.0786 69.3299 30.429C68.9558 30.7794 68.5013 30.9545 67.9663 30.9545ZM75.8445 36.8636V43H71.924V32.0909H75.6456V34.1648H75.7592C75.996 33.4735 76.4126 32.9313 77.0092 32.5384C77.6106 32.1454 78.3113 31.9489 79.1115 31.9489C79.8833 31.9489 80.5533 32.1264 81.1214 32.4815C81.6944 32.8319 82.1371 33.3149 82.4496 33.9304C82.7668 34.5459 82.9231 35.2491 82.9183 36.0398V43H78.9979V36.8636C79.0026 36.3239 78.8653 35.9001 78.5859 35.5923C78.3113 35.2846 77.9278 35.1307 77.4354 35.1307C77.1134 35.1307 76.8317 35.2017 76.5902 35.3438C76.3535 35.4811 76.1712 35.6799 76.0433 35.9403C75.9155 36.196 75.8492 36.5038 75.8445 36.8636ZM90.1094 47.3182C89.0156 47.3182 88.0781 47.1619 87.2969 46.8494C86.5204 46.5417 85.9167 46.1155 85.4858 45.571C85.0597 45.0313 84.8205 44.411 84.7685 43.7102H88.5469C88.5848 43.9422 88.6795 44.1293 88.831 44.2713C88.9825 44.4134 89.1766 44.5152 89.4134 44.5767C89.6548 44.643 89.9247 44.6761 90.223 44.6761C90.7296 44.6761 91.1487 44.553 91.4801 44.3068C91.8163 44.0606 91.9844 43.6155 91.9844 42.9716V41.125H91.8707C91.7287 41.4943 91.5109 41.8092 91.2173 42.0696C90.9238 42.3253 90.571 42.5218 90.1591 42.6591C89.7472 42.7917 89.295 42.858 88.8026 42.858C88.026 42.858 87.3111 42.678 86.6577 42.3182C86.009 41.9583 85.4882 41.3878 85.0952 40.6065C84.7069 39.8253 84.5128 38.8049 84.5128 37.5455C84.5128 36.2292 84.7164 35.1591 85.1236 34.3352C85.5355 33.5114 86.0658 32.9077 86.7145 32.5241C87.3679 32.1406 88.0545 31.9489 88.7741 31.9489C89.3139 31.9489 89.7874 32.0436 90.1946 32.233C90.6018 32.4176 90.9427 32.6662 91.2173 32.9787C91.492 33.2865 91.7003 33.625 91.8423 33.9943H91.9276V32.0909H95.848V42.9716C95.848 43.8949 95.6089 44.6785 95.1307 45.3224C94.6572 45.9711 93.9896 46.4659 93.1278 46.8068C92.2661 47.1477 91.2599 47.3182 90.1094 47.3182ZM90.2514 40.0739C90.6113 40.0739 90.919 39.9744 91.1747 39.7756C91.4351 39.572 91.634 39.2831 91.7713 38.9091C91.9134 38.5303 91.9844 38.0758 91.9844 37.5455C91.9844 37.0057 91.9134 36.544 91.7713 36.1605C91.634 35.7723 91.4351 35.4763 91.1747 35.2727C90.919 35.0644 90.6113 34.9602 90.2514 34.9602C89.8916 34.9602 89.5838 35.0644 89.3281 35.2727C89.0772 35.4763 88.883 35.7723 88.7457 36.1605C88.6132 36.544 88.5469 37.0057 88.5469 37.5455C88.5469 38.0852 88.6132 38.5445 88.7457 38.9233C88.883 39.2973 89.0772 39.5838 89.3281 39.7827C89.5838 39.9768 89.8916 40.0739 90.2514 40.0739Z" fill="black"/>
</svg>
