<svg width="123" height="51" viewBox="0 0 123 51" fill="none" xmlns="http://www.w3.org/2000/svg">
<path d="M91.6 21L85.3 14.7C84.8 15.1 84.225 15.4167 83.575 15.65C82.925 15.8833 82.2333 16 81.5 16C79.6833 16 78.146 15.3707 76.888 14.112C75.63 12.8533 75.0007 11.316 75 9.5C74.9993 7.684 75.6287 6.14667 76.888 4.888C78.1473 3.62933 79.6847 3 81.5 3C83.3153 3 84.853 3.62933 86.113 4.888C87.373 6.14667 88.002 7.684 88 9.5C88 10.2333 87.8833 10.925 87.65 11.575C87.4167 12.225 87.1 12.8 86.7 13.3L93 19.6L91.6 21ZM81.5 14C82.75 14 83.8127 13.5627 84.688 12.688C85.5633 11.8133 86.0007 10.7507 86 9.5C85.9993 8.24933 85.562 7.187 84.688 6.313C83.814 5.439 82.7513 5.00133 81.5 5C80.2487 4.99867 79.1863 5.43633 78.313 6.313C77.4397 7.18967 77.002 8.252 77 9.5C76.998 10.748 77.4357 11.8107 78.313 12.688C79.1903 13.5653 80.2527 14.0027 81.5 14ZM80 12V7L84 9.5L80 12Z" fill="#F24E1E"/>
<path d="M34.125 3.54545H40.0227L44.0795 13.4318H44.2841L48.3409 3.54545H54.2386V21H49.6023V10.9091H49.4659L45.5795 20.8636H42.7841L38.8977 10.8409H38.7614V21H34.125V3.54545ZM59.4162 25.9091C58.8764 25.9091 58.3622 25.8665 57.8736 25.7812C57.3849 25.7017 56.956 25.5909 56.5866 25.4489L57.6094 22.108C57.9957 22.2443 58.348 22.3324 58.6662 22.3722C58.9901 22.4119 59.2656 22.3892 59.4929 22.304C59.7259 22.2188 59.8935 22.0568 59.9957 21.8182L60.098 21.5795L55.4957 7.90909H60.4048L62.5185 16.9773H62.6548L64.8026 7.90909H69.7457L64.973 22.0909C64.7344 22.8125 64.3878 23.4602 63.9332 24.0341C63.4844 24.6136 62.8935 25.071 62.1605 25.4062C61.4276 25.7415 60.5128 25.9091 59.4162 25.9091Z" fill="white"/>
<path d="M9.125 45V27.5455H13.8636V41.1818H20.9205V45H9.125ZM29.1768 45.2386C27.7791 45.2386 26.5746 44.9716 25.5632 44.4375C24.5575 43.8977 23.782 43.125 23.2365 42.1193C22.6967 41.108 22.4268 39.8977 22.4268 38.4886C22.4268 37.1364 22.6996 35.9545 23.245 34.9432C23.7905 33.9318 24.5604 33.1449 25.5547 32.5824C26.549 32.0199 27.7223 31.7386 29.0746 31.7386C30.0632 31.7386 30.9581 31.892 31.7592 32.1989C32.5604 32.5057 33.245 32.9517 33.8132 33.5369C34.3814 34.1165 34.8189 34.821 35.1257 35.6506C35.4325 36.4801 35.5859 37.4148 35.5859 38.4545V39.5455H23.8928V36.9545H31.2564C31.2507 36.5795 31.1541 36.25 30.9666 35.9659C30.7848 35.6761 30.5376 35.4517 30.2251 35.2926C29.9183 35.1278 29.5689 35.0455 29.1768 35.0455C28.7962 35.0455 28.4467 35.1278 28.1286 35.2926C27.8104 35.4517 27.5547 35.6733 27.3615 35.9574C27.174 36.2415 27.0746 36.5739 27.0632 36.9545V39.75C27.0632 40.1705 27.1513 40.5455 27.3274 40.875C27.5036 41.2045 27.7564 41.4631 28.0859 41.6506C28.4155 41.8381 28.8132 41.9318 29.2791 41.9318C29.603 41.9318 29.8984 41.8864 30.1655 41.7955C30.4382 41.7045 30.6712 41.5739 30.8643 41.4034C31.0575 41.2273 31.1996 41.017 31.2905 40.7727H35.5859C35.4382 41.6818 35.0888 42.4716 34.5376 43.142C33.9865 43.8068 33.2564 44.3239 32.3473 44.6932C31.4439 45.0568 30.3871 45.2386 29.1768 45.2386ZM41.1534 45.2045C40.3182 45.2045 39.5795 45.0682 38.9375 44.7955C38.3011 44.517 37.8011 44.0966 37.4375 43.5341C37.0739 42.9716 36.892 42.2557 36.892 41.3864C36.892 40.6705 37.0142 40.0597 37.2585 39.554C37.5028 39.0426 37.8438 38.625 38.2812 38.3011C38.7188 37.9773 39.2273 37.7301 39.8068 37.5597C40.392 37.3892 41.0227 37.2784 41.6989 37.2273C42.4318 37.1705 43.0199 37.1023 43.4631 37.0227C43.9119 36.9375 44.2358 36.821 44.4347 36.6733C44.6335 36.5199 44.733 36.3182 44.733 36.0682V36.0341C44.733 35.6932 44.6023 35.4318 44.3409 35.25C44.0795 35.0682 43.7443 34.9773 43.3352 34.9773C42.8864 34.9773 42.5199 35.0767 42.2358 35.2756C41.9574 35.4687 41.7898 35.767 41.733 36.1705H37.4034C37.4602 35.375 37.7131 34.642 38.1619 33.9716C38.6165 33.2955 39.2784 32.7557 40.1477 32.3523C41.017 31.9432 42.1023 31.7386 43.4034 31.7386C44.3409 31.7386 45.1818 31.8494 45.9261 32.071C46.6705 32.2869 47.304 32.5909 47.8267 32.983C48.3494 33.3693 48.7472 33.8239 49.0199 34.3466C49.2983 34.8636 49.4375 35.4261 49.4375 36.0341V45H45.0398V43.1591H44.9375C44.6761 43.6477 44.358 44.0426 43.983 44.3438C43.6136 44.6449 43.1903 44.8636 42.7131 45C42.2415 45.1364 41.7216 45.2045 41.1534 45.2045ZM42.6875 42.2386C43.0455 42.2386 43.3807 42.1648 43.6932 42.017C44.0114 41.8693 44.2699 41.6562 44.4688 41.3778C44.6676 41.0994 44.767 40.7614 44.767 40.3636V39.2727C44.642 39.3239 44.5085 39.3722 44.3665 39.4176C44.2301 39.4631 44.0824 39.5057 43.9233 39.5455C43.7699 39.5852 43.6051 39.6222 43.429 39.6562C43.2585 39.6903 43.0795 39.7216 42.892 39.75C42.5284 39.8068 42.2301 39.9006 41.9972 40.0312C41.7699 40.1562 41.5994 40.3125 41.4858 40.5C41.3778 40.6818 41.3239 40.8864 41.3239 41.1136C41.3239 41.4773 41.4517 41.7557 41.7074 41.9489C41.9631 42.142 42.2898 42.2386 42.6875 42.2386ZM51.6854 45V31.9091H56.2536V34.3977H56.3899C56.6286 33.4773 57.0064 32.804 57.5234 32.3778C58.0462 31.9517 58.657 31.7386 59.3558 31.7386C59.5604 31.7386 59.7621 31.7557 59.9609 31.7898C60.1655 31.8182 60.3615 31.8608 60.549 31.9176V35.9318C60.3161 35.8523 60.0291 35.7926 59.6882 35.7528C59.3473 35.7131 59.0547 35.6932 58.8104 35.6932C58.3501 35.6932 57.9354 35.7983 57.5661 36.0085C57.2024 36.2131 56.9155 36.5028 56.7053 36.8778C56.495 37.2472 56.3899 37.6818 56.3899 38.1818V45H51.6854ZM66.7962 37.6364V45H62.0916V31.9091H66.5575V34.3977H66.6939C66.978 33.5682 67.478 32.9176 68.1939 32.446C68.9155 31.9744 69.7564 31.7386 70.7166 31.7386C71.6428 31.7386 72.4467 31.9517 73.1286 32.3778C73.8161 32.7983 74.3473 33.3778 74.7223 34.1165C75.103 34.8551 75.2905 35.6989 75.2848 36.6477V45H70.5803V37.6364C70.5859 36.9886 70.4212 36.4801 70.0859 36.1108C69.7564 35.7415 69.2962 35.5568 68.7053 35.5568C68.3189 35.5568 67.9808 35.642 67.6911 35.8125C67.407 35.9773 67.1882 36.2159 67.0348 36.5284C66.8814 36.8352 66.8018 37.2045 66.7962 37.6364ZM77.6072 45V31.9091H82.3118V45H77.6072ZM79.9595 30.5455C79.3232 30.5455 78.7777 30.3352 78.3232 29.9148C77.8686 29.4943 77.6413 28.9886 77.6413 28.3977C77.6413 27.8068 77.8686 27.3011 78.3232 26.8807C78.7777 26.4602 79.3232 26.25 79.9595 26.25C80.6016 26.25 81.147 26.4602 81.5959 26.8807C82.0504 27.3011 82.2777 27.8068 82.2777 28.3977C82.2777 28.9886 82.0504 29.4943 81.5959 29.9148C81.147 30.3352 80.6016 30.5455 79.9595 30.5455ZM89.4134 37.6364V45H84.7088V31.9091H89.1747V34.3977H89.3111C89.5952 33.5682 90.0952 32.9176 90.8111 32.446C91.5327 31.9744 92.3736 31.7386 93.3338 31.7386C94.2599 31.7386 95.0639 31.9517 95.7457 32.3778C96.4332 32.7983 96.9645 33.3778 97.3395 34.1165C97.7202 34.8551 97.9077 35.6989 97.902 36.6477V45H93.1974V37.6364C93.2031 36.9886 93.0384 36.4801 92.7031 36.1108C92.3736 35.7415 91.9134 35.5568 91.3224 35.5568C90.9361 35.5568 90.598 35.642 90.3082 35.8125C90.0241 35.9773 89.8054 36.2159 89.652 36.5284C89.4986 36.8352 89.419 37.2045 89.4134 37.6364ZM106.531 50.1818C105.219 50.1818 104.094 49.9943 103.156 49.6193C102.224 49.25 101.5 48.7386 100.983 48.0852C100.472 47.4375 100.185 46.6932 100.122 45.8523H104.656C104.702 46.1307 104.815 46.3551 104.997 46.5256C105.179 46.696 105.412 46.8182 105.696 46.892C105.986 46.9716 106.31 47.0114 106.668 47.0114C107.276 47.0114 107.778 46.8636 108.176 46.5682C108.58 46.2727 108.781 45.7386 108.781 44.9659V42.75H108.645C108.474 43.1932 108.213 43.571 107.861 43.8835C107.509 44.1903 107.085 44.4261 106.591 44.5909C106.097 44.75 105.554 44.8295 104.963 44.8295C104.031 44.8295 103.173 44.6136 102.389 44.1818C101.611 43.75 100.986 43.0653 100.514 42.1278C100.048 41.1903 99.8153 39.9659 99.8153 38.4545C99.8153 36.875 100.06 35.5909 100.548 34.6023C101.043 33.6136 101.679 32.8892 102.457 32.429C103.241 31.9688 104.065 31.7386 104.929 31.7386C105.577 31.7386 106.145 31.8523 106.634 32.0795C107.122 32.3011 107.531 32.5994 107.861 32.9744C108.19 33.3437 108.44 33.75 108.611 34.1932H108.713V31.9091H113.418V44.9659C113.418 46.0739 113.131 47.0142 112.557 47.7869C111.989 48.5653 111.188 49.1591 110.153 49.5682C109.119 49.9773 107.912 50.1818 106.531 50.1818ZM106.702 41.4886C107.134 41.4886 107.503 41.3693 107.81 41.1307C108.122 40.8864 108.361 40.5398 108.526 40.0909C108.696 39.6364 108.781 39.0909 108.781 38.4545C108.781 37.8068 108.696 37.2528 108.526 36.7926C108.361 36.3267 108.122 35.9716 107.81 35.7273C107.503 35.4773 107.134 35.3523 106.702 35.3523C106.27 35.3523 105.901 35.4773 105.594 35.7273C105.293 35.9716 105.06 36.3267 104.895 36.7926C104.736 37.2528 104.656 37.8068 104.656 38.4545C104.656 39.1023 104.736 39.6534 104.895 40.108C105.06 40.5568 105.293 40.9006 105.594 41.1392C105.901 41.3722 106.27 41.4886 106.702 41.4886Z" fill="white"/>
</svg>
